<?xml version="1.0" encoding="UTF-8"?>
<svg id="Capa_1" data-name="Capa 1" xmlns="http://www.w3.org/2000/svg" viewBox="0 0 720 683.74">
  <defs>
    <style>
      .cls-1 {
        fill: #eaf27c;
        stroke-width: 0px;
      }
    </style>
  </defs>
  <path class="cls-1" d="M702.79,173.47c-2.23-12.65-6.08-23.65-11.44-32.7-5.17-8.72-12.01-15.23-20.91-19.9-8.94-4.69-20.61-7.07-34.68-7.07-12.97,0-23.81,2.18-32.21,6.47-3.06,1.56-5.93,3.42-8.53,5.5l-4.66,3.75-4.77-3.61c-30.53-23.08-63.53-41.37-98.09-54.36-41.22-15.5-84.12-23.35-127.52-23.35s-86.3,7.86-127.52,23.35c-34.55,12.99-67.55,31.28-98.08,54.35l-4.77,3.61-4.66-3.75c-2.59-2.08-5.46-3.93-8.51-5.49-8.4-4.29-19.24-6.47-32.21-6.47-14.07,0-25.74,2.38-34.68,7.07-8.9,4.67-15.74,11.17-20.91,19.89-5.36,9.04-9.21,20.05-11.44,32.7-2.31,13.12-3.48,28.03-3.48,44.33v158.28c0,22.85,2.52,42.46,7.49,58.31,4.72,15.05,12.16,26.53,22.12,34.12,9.88,7.54,23.15,11.36,39.42,11.36s30.54-3.66,40.23-10.88c1.01-.75,2.02-1.58,3.1-2.53l4.68-4.14,5,3.75c30.1,22.56,62.64,40.49,96.71,53.31,6.51,2.45,13.39,4.8,20.46,7l5.4,1.68v9.54c0,.41.02.81.06,1.21l.06.58-.03.58c-.07,1.45-.1,2.8-.1,4.13,0,56.06,45.61,101.66,101.66,101.66s101.66-45.61,101.66-101.66c0-1.33-.03-2.68-.1-4.13l-.03-.58.06-.58c.04-.39.06-.8.06-1.21v-9.54l5.4-1.68c7.06-2.2,13.95-4.55,20.46-7,34.07-12.81,66.61-30.75,96.72-53.31l5-3.75,4.68,4.14c1.08.96,2.1,1.79,3.1,2.54,9.69,7.22,23.22,10.88,40.23,10.88s29.54-3.82,39.42-11.35c9.96-7.59,17.41-19.07,22.12-34.12,4.97-15.84,7.49-35.46,7.49-58.31v-158.28c0-16.3-1.17-31.21-3.48-44.33h0ZM439.22,535.11l-.1.63c-.15.87-.19,1.76-.12,2.64.13,1.8.2,3.37.22,4.83,0,.28.01.58.01.88,0,43.69-35.54,79.23-79.23,79.23s-79.23-35.54-79.23-79.23v-.87c.03-1.47.1-3.05.23-4.83.06-.89.02-1.77-.12-2.64l-.1-.63v-142.12l9.97,3.12c18.81,5.89,38.46,9.33,58.39,10.25l7.32.34v136.03h7.08v-136.03l7.32-.34c19.94-.91,39.58-4.36,58.39-10.25l9.97-3.12v142.12ZM672.26,377.78c0,16.3-.82,29.78-2.42,40.07-1.79,11.51-5.07,19.9-10.03,25.65-5.45,6.33-13.11,9.55-22.76,9.55-14.08,0-24.37-7.53-28.99-21.22-3.64-10.78-5.54-26.98-5.78-49.43h-32.72c.59,9.06,1.73,24.14,3.38,36.8l.56,4.28-3.36,2.7c-30.4,24.42-63.41,43.34-98.12,56.21l-10.34,3.84v-103.01l4.15-2.14c7.67-3.97,15.17-8.4,22.37-13.22l-21.83-21.88c-31.65,21.44-68.28,32.73-106.35,32.73s-74.7-11.29-106.35-32.73l-21.83,21.88c7.21,4.82,14.7,9.25,22.37,13.22l4.15,2.14v103.01l-10.34-3.84c-34.7-12.87-67.71-31.78-98.1-56.2l-3.36-2.7.56-4.28c1.65-12.66,2.79-27.76,3.38-36.82h-32.72c-.24,22.45-2.14,38.66-5.78,49.43-4.62,13.68-14.91,21.22-28.99,21.22-9.65,0-17.31-3.21-22.77-9.55-4.96-5.75-8.24-14.14-10.03-25.65-1.61-10.28-2.42-23.77-2.42-40.06v-166.76c0-21.3,2.06-37.33,6.28-49.02,5.01-13.85,15.46-21.17,30.21-21.17s24.06,7.4,28.3,20.83c3.04,9.65,4.76,23.63,5.15,41.63l32.52-.98c-.29-10.92-1.22-21.18-2.77-30.6l-.73-4.43,3.5-2.81c62.12-49.8,134.67-76.13,209.79-76.13s147.68,26.33,209.81,76.14l3.5,2.81-.73,4.43c-1.55,9.41-2.48,19.67-2.77,30.58l32.52.98c.38-18,2.11-31.98,5.15-41.63,4.24-13.44,14.29-20.84,28.3-20.84,14.75,0,25.2,7.32,30.21,21.17,4.23,11.68,6.28,27.72,6.28,49.02v166.76Z"/>
  <path class="cls-1" d="M207.32,308.25c10.82-8.47,22.13-16.05,33.76-22.62l6.88-3.89,6.22,4.88c31.31,24.57,67.9,37.56,105.82,37.56s74.51-12.99,105.81-37.56l6.22-4.88,6.88,3.89c11.63,6.57,22.94,14.15,33.76,22.62l31.95-37.51c-54.55-43.29-118.14-66.1-184.63-66.1s-130.08,22.81-184.63,66.1l31.95,37.51ZM290.72,264.23c22.51-6.88,45.81-10.36,69.27-10.36s46.76,3.49,69.27,10.36l26.7,8.16-24.45,13.48c-22.47,12.39-46.54,18.67-71.52,18.67s-49.04-6.28-71.52-18.67l-24.45-13.48,26.7-8.16Z"/>
</svg>